:SAMPLES-PER-SECOND 24
:FULLY-SPECIFIED
:DEGREES
322
root  -2.20645 39.3935 2.52454 -174.897 60.8894 175.969
RightUpLeg  -9.52629 2.36988 -8.17895
RightLeg  22.274 -6.1475 -2.97866
RightFoot  -15.6834 0.142522 6.58827
RightToes  -2.09809e-008 3.77894e-005 6.81332e-007
Spine  -8.04855 1.35321 3.59834
Spine1  8.42557 2.25344 -4.7573
HEad  -17.4638 37.2509 -14.8618
LeftShoulder1  5.77325 -11.3841 -32.7861
LeftArm  -1.10092 22.4571 -33.1586
LeftForeArm  169.927 -62.1739 -161.287
LeftHand  -0.184752 -1.71283 3.18357
RightShoulder  3.32599 5.96843 29.1864
RightArm  16.4125 -29.0253 33.9406
RightForeArm  158.613 71.763 149.064
RightHand  -0.480935 8.80713 -4.30896
LeftUpLeg  -13.0614 1.64576 12.7042
LeftLeg  14.6848 1.97397 1.30149
LeftFoot  -1.84116 1.62461 -19.257
LeftToes  1.24773e-006 1.46318e-008 1.32523e-009
323
root  -2.40714 38.8294 2.7236 -174.605 61.8822 177.025
RightUpLeg  -11.1065 5.21002 -7.24943
RightLeg  26.1582 -8.11782 -4.53908
RightFoot  -18.8167 0.27424 6.14681
RightToes  -2.09809e-008 3.77894e-005 6.81332e-007
Spine  -7.59118 1.47255 6.39927
Spine1  10.0641 2.74943 -6.83811
HEad  -19.3484 37.0338 -16.705
LeftShoulder1  6.2002 -11.7995 -34.5058
LeftArm  -1.23843 17.5304 -29.8066
LeftForeArm  168.009 -65.9944 -157.802
LeftHand  -0.276783 -1.39495 4.88941
RightShoulder  3.21173 5.76634 28.7078
RightArm  14.3995 -24.35 35.0922
RightForeArm  155.31 74.543 142.826
RightHand  -0.39602 8.98888 -3.57956
LeftUpLeg  -14.2216 -1.18114 13.6793
LeftLeg  18.7054 5.61218 2.44211
LeftFoot  -5.65423 0.971873 -18.7436
LeftToes  1.24773e-006 1.46318e-008 1.32523e-009
324
root  -2.43608 38.6288 2.96272 -174.849 61.7418 177.096
RightUpLeg  -12.0499 6.13089 -6.68305
RightLeg  28.5673 -9.2413 -5.63518
RightFoot  -19.8538 0.309993 5.96913
RightToes  -2.09809e-008 3.77894e-005 6.81332e-007
Spine  -7.87569 1.37023 6.03885
Spine1  11.1151 2.47266 -5.97434
HEad  -19.7011 36.3754 -17.2174
LeftShoulder1  6.84392 -12.5084 -36.6905
LeftArm  -1.74098 15.2856 -28.1138
LeftForeArm  168.453 -67.9836 -155.745
LeftHand  -0.30939 -1.1188 5.65581
RightShoulder  3.21536 5.71068 28.9634
RightArm  11.4574 -23.8964 35.6765
RightForeArm  153.468 75.3878 140.3
RightHand  -0.388877 9.13272 -3.49482
LeftUpLeg  -15.3444 -3.4146 14.0366
LeftLeg  21.0254 7.76178 3.60229
LeftFoot  -5.94675 0.916678 -18.5683
LeftToes  1.24773e-006 1.46318e-008 1.32523e-009
325
root  -2.2911 38.8765 3.2477 -175.353 60.6368 176.556
RightUpLeg  -11.3197 5.72378 -6.2393
RightLeg  27.4524 -10.1473 -5.89378
RightFoot  -18.5861 0.229337 5.60779
RightToes  -2.09809e-008 3.77894e-005 6.81332e-007
Spine  -8.65072 0.774428 3.83355
Spine1  11.4336 1.38706 -3.58671
HEad  -18.5169 36.6812 -16.2124
LeftShoulder1  6.79799 -12.4874 -36.4572
LeftArm  -2.26986 17.0161 -31.1603
LeftForeArm  170.167 -67.1748 -156.824
LeftHand  -0.291874 -1.29055 5.22193
RightShoulder  3.25512 5.74863 29.2575
RightArm  9.59677 -27.0829 36.5472
RightForeArm  154.57 73.8356 144.308
RightHand  -0.575094 8.25002 -5.26903
LeftUpLeg  -15.4311 -3.60357 14.2378
LeftLeg  19.9481 7.28286 3.23537
LeftFoot  -3.03587 1.42109 -19.1543
LeftToes  1.24773e-006 1.46318e-008 1.32523e-009
326
root  -2.0608 39.3339 3.53268 -175.311 59.4802 176.228
RightUpLeg  -9.5281 5.07785 -5.72104
RightLeg  23.4813 -10.9542 -5.37858
RightFoot  -16.3041 0.10917 5.06317
RightToes  -2.09809e-008 3.77894e-005 6.81332e-007
Spine  -9.86323 0.064751 1.30037
Spine1  11.3963 0.0856578 -0.702915
HEad  -15.9296 37.8629 -14.7661
LeftShoulder1  6.58883 -12.2702 -35.7371
LeftArm  -2.20265 20.4315 -35.2096
LeftForeArm  170.954 -64.8564 -159.184
LeftHand  -0.272276 -1.39745 4.80982
RightShoulder  3.26676 5.7538 29.3666
RightArm  9.48402 -30.9556 37.0929
RightForeArm  156.87 71.6751 148.944
RightHand  -0.63091 8.0279 -5.80698
LeftUpLeg  -14.923 -1.59672 14.5283
LeftLeg  16.833 4.49322 2.00752
LeftFoot  1.18407 2.23219 -20.2098
LeftToes  1.24773e-006 1.46318e-008 1.32523e-009
327
root  -1.854 39.6746 3.78937 -174.86 59.0055 176.169
RightUpLeg  -7.96786 4.39469 -5.26825
RightLeg  19.2916 -10.9813 -4.44756
RightFoot  -14.5582 0.0228786 4.32807
RightToes  -2.09809e-008 3.77894e-005 6.81332e-007
Spine  -11.0565 -0.370683 0.611437
Spine1  11.0236 -0.480187 -0.0606314
HEad  -12.8363 38.9364 -12.8774
LeftShoulder1  6.41703 -12.0548 -35.2226
LeftArm  -1.44634 23.1487 -37.4699
LeftForeArm  171.781 -63.1286 -160.733
LeftHand  -0.259196 -1.56766 4.48758
RightShoulder  3.35781 5.85742 29.96
RightArm  10.0893 -33.6776 36.7799
RightForeArm  159.709 70.6316 151.061
RightHand  -0.472101 9.3313 -4.10786
LeftUpLeg  -14.5381 1.108 14.6628
LeftLeg  14.1759 1.43377 1.36727
LeftFoot  4.67589 2.94792 -20.9505
LeftToes  1.24773e-006 1.46318e-008 1.32523e-009
328
root  -1.75779 39.6756 4.02456 -174.282 59.3227 176.298
RightUpLeg  -7.81726 4.24293 -4.78416
RightLeg  17.8035 -10.6556 -4.18943
RightFoot  -14.7961 0.00713646 3.57781
RightToes  -2.09809e-008 3.77894e-005 6.81332e-007
Spine  -11.6787 -0.232849 1.3338
Spine1  10.3122 -0.23567 -0.730594
HEad  -11.1458 39.3228 -11.4206
LeftShoulder1  6.26456 -11.8908 -34.6808
LeftArm  -0.700941 24.4792 -38.5437
LeftForeArm  173.269 -62.7517 -161.176
LeftHand  -0.183947 -2.1346 3.02967
RightShoulder  3.41475 5.94693 30.2275
RightArm  10.982 -35.0717 36.3484
RightForeArm  160.803 70.5457 151.347
RightHand  -0.427296 9.89084 -3.64077
LeftUpLeg  -14.5546 2.05035 14.9486
LeftLeg  13.2914 1.31327 1.44486
LeftFoot  5.33387 3.05531 -20.8647
LeftToes  1.24773e-006 1.46318e-008 1.32523e-009
329
root  -1.85263 39.332 4.27088 -173.669 60.5009 177.072
RightUpLeg  -9.54281 6.12033 -4.14059
RightLeg  20.7817 -11.4364 -4.97875
RightFoot  -17.0037 0.0319964 2.98122
RightToes  -2.09809e-008 3.77894e-005 6.81332e-007
Spine  -10.301 0.391883 3.54251
Spine1  8.83797 0.587604 -2.28497
HEad  -12.1414 39.4221 -11.5042
LeftShoulder1  6.27735 -11.9436 -34.6268
LeftArm  -0.124432 23.9733 -38.3843
LeftForeArm  172.98 -63.5565 -160.512
LeftHand  -0.116527 -2.40919 1.93122
RightShoulder  3.40782 5.98252 30.0142
RightArm  12.4263 -34.2598 35.9311
RightForeArm  158.839 71.0421 150.308
RightHand  -0.574867 9.16303 -4.96944
LeftUpLeg  -14.7717 0.819607 15.7991
LeftLeg  14.6193 4.34488 2.0641
LeftFoot  2.86603 2.54133 -20.338
LeftToes  1.24773e-006 1.46318e-008 1.32523e-009
330
root  -2.11451 38.8446 4.54272 -173.613 62.0563 178.271
RightUpLeg  -11.9204 7.06183 -3.34327
RightLeg  26.3591 -10.7487 -5.95771
RightFoot  -19.4298 0.0480806 2.54245
RightToes  -2.09809e-008 3.77894e-005 6.81332e-007
Spine  -7.55476 0.92978 6.27258
Spine1  8.3342 1.42703 -4.09257
HEad  -15.7349 39.4988 -13.6914
LeftShoulder1  6.76821 -12.4884 -36.2705
LeftArm  0.158043 20.9051 -35.8598
LeftForeArm  169.72 -65.5136 -158.452
LeftHand  -0.177632 -1.95098 2.99435
RightShoulder  3.37778 5.9791 29.7044
RightArm  13.7314 -29.9474 35.4694
RightForeArm  154.718 72.8336 146.484
RightHand  -0.738407 8.72057 -6.43858
LeftUpLeg  -14.9644 -1.49565 16.8299
LeftLeg  17.7722 8.27265 3.32729
LeftFoot  -0.202929 1.97162 -20.0295
LeftToes  1.24773e-006 1.46318e-008 1.32523e-009
331
root  -2.34136 38.4659 4.80688 -174.459 62.7355 178.744
RightUpLeg  -13.2945 6.63641 -2.86853
RightLeg  30.6949 -9.56237 -6.31282
RightFoot  -20.9821 0.0448316 2.21652
RightToes  -2.09809e-008 3.77894e-005 6.81332e-007
Spine  -5.39438 0.790897 7.75302
Spine1  9.06162 1.5953 -5.11903
HEad  -19.8226 39.8174 -16.1667
LeftShoulder1  7.18687 -12.9213 -37.6629
LeftArm  -0.0993322 17.6981 -33.4561
LeftForeArm  167.682 -67.8048 -155.842
LeftHand  -0.263481 -1.62069 4.52914
RightShoulder  3.36285 5.96286 29.6058
RightArm  14.474 -24.5367 35.5878
RightForeArm  149.108 75.4965 139.125
RightHand  -0.846262 8.65854 -7.35119
LeftUpLeg  -15.2083 -3.49475 17.2587
LeftLeg  20.7315 10.8737 4.83706
LeftFoot  -1.77585 1.69849 -19.9967
LeftToes  1.24773e-006 1.46318e-008 1.32523e-009
332
root  -2.35887 38.3852 5.04979 -175.327 62.0275 178.412
RightUpLeg  -13.2033 6.07938 -2.55682
RightLeg  31.6577 -9.71813 -6.64183
RightFoot  -21.4258 0.030907 1.99345
RightToes  -2.09809e-008 3.77894e-005 6.81332e-007
Spine  -4.88576 0.371407 6.8664
Spine1  9.47402 1.03301 -4.02722
HEad  -21.5166 40.154 -16.572
LeftShoulder1  7.29108 -13.0497 -37.9424
LeftArm  -0.234348 17.2912 -32.4878
LeftForeArm  169.671 -68.4811 -155.296
LeftHand  -0.274408 -1.73038 4.64778
RightShoulder  3.46311 6.07291 30.2571
RightArm  14.5977 -22.5262 35.5212
RightForeArm  146.698 76.5187 135.439
RightHand  -0.769793 8.7154 -6.69926
LeftUpLeg  -15.7636 -5.10462 17.4737
LeftLeg  21.9173 11.6352 5.42652
LeftFoot  -1.38393 1.80446 -20.4171
LeftToes  1.24773e-006 1.46318e-008 1.32523e-009
333
root  -2.20155 38.6224 5.25474 -175.493 60.4351 178.008
RightUpLeg  -12.0379 6.15578 -2.13521
RightLeg  29.5726 -11.3438 -7.10742
RightFoot  -20.4512 0.0193065 1.98086
RightToes  -2.09809e-008 3.77894e-005 6.81332e-007
Spine  -5.34725 0.116531 4.97608
Spine1  8.97837 0.360709 -2.08249
HEad  -20.1956 39.9283 -14.8951
LeftShoulder1  7.06931 -12.848 -37.1549
LeftArm  0.594671 19.4495 -33.3891
LeftForeArm  173.004 -66.6948 -157.643
LeftHand  -0.246679 -1.85787 4.129
RightShoulder  3.45041 6.032 30.2791
RightArm  14.1265 -25.3038 36.2567
RightForeArm  151.851 74.8917 141.257
RightHand  -0.586206 9.08022 -5.08007
LeftUpLeg  -16.9054 -5.5258 17.7295
LeftLeg  21.9148 10.6544 5.00505
LeftFoot  1.66633 2.36995 -20.6707
LeftToes  1.24773e-006 1.46318e-008 1.32523e-009
